<svg width="44" height="45" viewBox="0 0 44 45" fill="none" xmlns="http://www.w3.org/2000/svg">
<ellipse cx="22" cy="22.5" rx="22" ry="22.5" fill="#555555" fill-opacity="0.34"/>
<path d="M31.6933 14.1066C29.92 13.28 28 12.68 26 12.3333C25.9824 12.3328 25.9651 12.336 25.9489 12.343C25.9328 12.3499 25.9184 12.3602 25.9067 12.3733C25.6667 12.8133 25.3867 13.3866 25.2 13.8266C23.0787 13.5066 20.9213 13.5066 18.8 13.8266C18.6133 13.3733 18.3333 12.8133 18.08 12.3733C18.0667 12.3467 18.0267 12.3333 17.9867 12.3333C15.9867 12.68 14.08 13.28 12.2933 14.1066C12.28 14.1066 12.2667 14.12 12.2533 14.1333C8.62666 19.56 7.62666 24.84 8.11999 30.0667C8.11999 30.0933 8.13333 30.12 8.15999 30.1333C10.56 31.8933 12.8667 32.96 15.1467 33.6667C15.1867 33.68 15.2267 33.6667 15.24 33.64C15.7733 32.9067 16.2533 32.1333 16.6667 31.32C16.6933 31.2667 16.6667 31.2133 16.6133 31.2C15.8533 30.9067 15.1333 30.56 14.4267 30.16C14.3733 30.1333 14.3733 30.0533 14.4133 30.0133C14.56 29.9067 14.7067 29.7867 14.8533 29.68C14.88 29.6533 14.92 29.6533 14.9467 29.6667C19.5333 31.76 24.48 31.76 29.0133 29.6667C29.04 29.6533 29.08 29.6533 29.1067 29.68C29.2533 29.8 29.4 29.9067 29.5467 30.0267C29.6 30.0667 29.6 30.1467 29.5333 30.1733C28.84 30.5867 28.1067 30.92 27.3467 31.2133C27.2933 31.2267 27.28 31.2933 27.2933 31.3333C27.72 32.1467 28.2 32.92 28.72 33.6533C28.76 33.6667 28.8 33.68 28.84 33.6667C31.1333 32.96 33.44 31.8933 35.84 30.1333C35.8667 30.12 35.88 30.0933 35.88 30.0667C36.4667 24.0267 34.9067 18.7866 31.7467 14.1333C31.7333 14.12 31.72 14.1066 31.6933 14.1066ZM17.36 26.88C15.9867 26.88 14.84 25.6133 14.84 24.0533C14.84 22.4933 15.96 21.2267 17.36 21.2267C18.7733 21.2267 19.8933 22.5067 19.88 24.0533C19.88 25.6133 18.76 26.88 17.36 26.88ZM26.6533 26.88C25.28 26.88 24.1333 25.6133 24.1333 24.0533C24.1333 22.4933 25.2533 21.2267 26.6533 21.2267C28.0667 21.2267 29.1867 22.5067 29.1733 24.0533C29.1733 25.6133 28.0667 26.88 26.6533 26.88Z" fill="white"/>
</svg>
